<?xml version="1.0" standalone="no"?>
<!DOCTYPE svg PUBLIC "-//W3C//DTD SVG 20010904//EN"
 "http://www.w3.org/TR/2001/REC-SVG-20010904/DTD/svg10.dtd">
<svg version="1.0" xmlns="http://www.w3.org/2000/svg"
 width="100.000000pt" height="100.000000pt" viewBox="0 0 100.000000 100.000000"
 preserveAspectRatio="xMidYMid meet">

<g transform="translate(0.000000,100.000000) scale(0.100000,-0.100000)"
fill="rgb(45, 168, 255)" stroke="none">
<path d="M189 905 c-15 -8 -29 -21 -33 -30 -5 -13 32 -15 318 -15 319 0 323 0
357 -23 64 -42 69 -66 69 -309 0 -191 2 -217 15 -211 39 14 45 53 45 292 0
249 -4 272 -51 297 -41 21 -682 20 -720 -1z"/>
<path d="M91 806 c-47 -26 -50 -45 -51 -294 0 -253 4 -277 55 -300 14 -7 49
-12 77 -12 l51 0 -7 -32 c-3 -18 -18 -44 -32 -59 -43 -45 -13 -61 70 -38 41
11 121 79 131 110 6 18 18 19 200 19 211 0 237 5 261 51 19 37 21 474 2 514
-24 53 -39 55 -400 55 -257 -1 -338 -4 -357 -14z"/>
</g>
</svg>
