<?xml version="1.0" standalone="no"?>
<!DOCTYPE svg PUBLIC "-//W3C//DTD SVG 20010904//EN"
 "http://www.w3.org/TR/2001/REC-SVG-20010904/DTD/svg10.dtd">
<svg version="1.0" xmlns="http://www.w3.org/2000/svg"
 width="100.000000pt" height="100.000000pt" viewBox="0 0 100.000000 100.000000"
 preserveAspectRatio="xMidYMid meet">

<g transform="translate(0.000000,100.000000) scale(0.100000,-0.100000)"
fill="rgb(45, 168, 255)" stroke="none">
<path d="M257 795 c-130 -102 -237 -190 -237 -195 0 -16 19 -21 40 -10 19 10
20 7 22 -257 l3 -268 148 -3 147 -3 0 181 0 180 120 0 120 0 0 -180 0 -181
148 3 147 3 3 268 2 268 21 -12 c23 -12 46 1 35 19 -7 12 -454 362 -470 368
-6 2 -118 -79 -249 -181z"/>
<path d="M700 891 c0 -8 53 -54 108 -94 9 -7 12 4 12 47 l0 56 -60 0 c-33 0
-60 -4 -60 -9z"/>
</g>
</svg>
