<?xml version="1.0" standalone="no"?>
<!DOCTYPE svg PUBLIC "-//W3C//DTD SVG 20010904//EN"
 "http://www.w3.org/TR/2001/REC-SVG-20010904/DTD/svg10.dtd">
<svg version="1.0" xmlns="http://www.w3.org/2000/svg"
 width="100.000000pt" height="100.000000pt" viewBox="0 0 100.000000 100.000000"
 preserveAspectRatio="xMidYMid meet">

<g transform="translate(0.000000,100.000000) scale(0.100000,-0.100000)"
fill="rgb(45, 168, 255)" stroke="none">
<path d="M445 975 c-16 -15 -25 -36 -25 -55 0 -19 9 -40 25 -55 49 -50 135
-15 135 55 0 41 -39 80 -80 80 -19 0 -40 -9 -55 -25z"/>
<path d="M338 847 c-64 -49 -88 -106 -98 -232 -13 -151 -30 -198 -102 -266
-63 -61 -70 -84 -35 -117 53 -50 174 -72 397 -72 223 0 344 22 397 72 35 33
28 56 -35 117 -72 68 -89 115 -102 266 -10 126 -34 183 -98 232 l-42 32 -34
-37 c-31 -34 -39 -37 -86 -37 -47 0 -55 3 -86 37 l-34 37 -42 -32z"/>
<path d="M385 93 c3 -16 20 -41 36 -58 25 -25 37 -30 79 -30 42 0 54 5 79 30
16 17 33 42 36 58 l7 27 -122 0 -122 0 7 -27z"/>
</g>
</svg>
