<?xml version="1.0" standalone="no"?>
<!DOCTYPE svg PUBLIC "-//W3C//DTD SVG 20010904//EN"
 "http://www.w3.org/TR/2001/REC-SVG-20010904/DTD/svg10.dtd">
<svg version="1.0" xmlns="http://www.w3.org/2000/svg"
 width="100.000000pt" height="100.000000pt" viewBox="0 0 100.000000 100.000000"
 preserveAspectRatio="xMidYMid meet">

<g transform="translate(0.000000,100.000000) scale(0.100000,-0.100000)"
fill="rgb(45, 168, 255)" stroke="none">
<path d="M269 790 c-104 -13 -185 -39 -226 -75 l-38 -33 -3 -91 -4 -91 40 0
40 0 4 55 c8 92 61 125 198 125 137 0 190 -33 198 -125 4 -44 8 -55 22 -55 14
0 18 11 22 55 8 92 61 125 198 125 137 0 190 -33 198 -125 l4 -55 40 0 40 0
-4 91 -3 91 -38 33 c-68 59 -218 86 -472 84 -82 -1 -180 -5 -216 -9z"/>
<path d="M0 230 l0 -230 80 0 80 0 0 30 0 30 340 0 340 0 0 -30 0 -30 80 0 80
0 0 230 0 230 -500 0 -500 0 0 -230z"/>
</g>
</svg>
