<?xml version="1.0" standalone="no"?>
<!DOCTYPE svg PUBLIC "-//W3C//DTD SVG 20010904//EN"
 "http://www.w3.org/TR/2001/REC-SVG-20010904/DTD/svg10.dtd">
<svg version="1.0" xmlns="http://www.w3.org/2000/svg"
 width="100.000000pt" height="100.000000pt" viewBox="0 0 100.000000 100.000000"
 preserveAspectRatio="xMidYMid meet">

<g transform="translate(0.000000,100.000000) scale(0.100000,-0.100000)"
fill="rgb(45, 168, 255)" stroke="none">
<path d="M440 876 c-204 -57 -310 -92 -299 -99 2 -1 143 -1 313 1 l308 3 -4
65 c-5 73 -20 95 -67 93 -14 0 -127 -29 -251 -63z"/>
<path d="M150 727 c-13 -7 -35 -28 -47 -46 -22 -33 -23 -41 -23 -273 0 -263 4
-284 60 -313 43 -22 677 -22 720 0 56 29 60 50 60 312 0 261 -2 272 -59 310
-34 23 -37 23 -360 23 -241 0 -332 -4 -351 -13z m654 -283 c31 -30 9 -84 -34
-84 -24 0 -50 26 -50 50 0 43 54 65 84 34z"/>
</g>
</svg>
